<svg width="37" height="37" viewBox="0 0 37 37" fill="none" xmlns="http://www.w3.org/2000/svg">
<g clip-path="url(#clip0_2_154)">
<path d="M5.81226 18.4089C5.81226 17.8318 5.42748 17.4368 4.84018 17.4368H0.972085C0.39491 17.4368 0 18.0139 0 18.4089C0 18.986 0.384784 19.381 0.972085 19.381H4.84018C5.42748 19.3708 5.81226 18.986 5.81226 18.4089Z" fill="white"/>
<path d="M8.14121 27.3095L5.42747 30.0233C5.04269 30.408 5.04269 30.9955 5.42747 31.3801C5.81226 31.7649 6.39956 31.7649 6.78434 31.3801L9.49808 28.6664C9.88286 28.2815 9.88286 27.6942 9.49808 27.3095C9.1133 27.1171 8.526 26.9247 8.14121 27.3095Z" fill="white"/>
<path d="M28.6665 9.49808L31.3801 6.78434C31.7649 6.39956 31.7649 5.81226 31.3801 5.42747C30.9953 5.04269 30.4079 5.04269 30.0233 5.42747L27.3095 8.14121C26.9247 8.526 26.9247 9.1133 27.3095 9.49808C27.7045 9.88286 28.474 9.88286 28.6665 9.49808Z" fill="white"/>
<path d="M18.4089 5.81226C18.986 5.81226 19.3811 5.42748 19.3811 4.84018V0.972085C19.3811 0.39491 18.9963 0 18.4089 0C18.0241 0 17.4368 0.384784 17.4368 0.972085V4.84018C17.4368 5.42748 18.014 5.81226 18.4089 5.81226Z" fill="white"/>
<path d="M8.14121 9.49808C8.526 9.88286 9.1133 9.88286 9.49808 9.49808C9.88286 9.1133 9.88286 8.526 9.49808 8.14121L6.78434 5.42747C6.39956 5.04269 5.81226 5.04269 5.42747 5.42747C5.04269 5.81226 5.04269 6.39956 5.42747 6.78434L8.14121 9.49808Z" fill="white"/>
<path d="M18.4089 31.1877C17.8318 31.1877 17.4368 31.5725 17.4368 32.1599V36.0279C17.4368 36.6051 17.8216 37.0001 18.4089 37.0001C18.9963 37.0001 19.3811 36.6153 19.3811 36.0279V32.1599C19.3708 31.5725 18.986 31.1877 18.4089 31.1877Z" fill="white"/>
<path d="M36.0279 17.4368H32.1599C31.5828 17.4368 31.1877 17.8216 31.1877 18.4089C31.1877 18.9963 31.5725 19.381 32.1599 19.381H36.0279C36.6051 19.381 37.0001 18.9963 37.0001 18.4089C37 18.0139 36.4128 17.4368 36.0279 17.4368Z" fill="white"/>
<path d="M28.6665 27.3095C28.2816 26.9247 27.6943 26.9247 27.3096 27.3095C26.9249 27.6943 26.9248 28.2816 27.3096 28.6664L30.0234 31.3801C30.4081 31.7649 30.9955 31.7649 31.3802 31.3801C31.7649 30.9953 31.765 30.4079 31.3802 30.0233L28.6665 27.3095Z" fill="white"/>
<path d="M18.4089 29.0613C24.2921 29.0613 29.0613 24.2921 29.0613 18.4089C29.0613 12.5257 24.2921 7.75644 18.4089 7.75644C12.5257 7.75644 7.75644 12.5257 7.75644 18.4089C7.75644 24.2921 12.5257 29.0613 18.4089 29.0613Z" fill="white"/>
</g>
<defs>
<clipPath id="clip0_2_154">
<rect width="37" height="37" fill="white"/>
</clipPath>
</defs>
</svg>
