<svg width="35" height="35" viewBox="0 0 35 35" fill="none" xmlns="http://www.w3.org/2000/svg">
<path d="M11.6667 32.9456C10.3414 32.9456 9.04933 32.694 7.82616 32.1978C6.55886 31.6838 5.42246 30.9294 4.44829 29.9556C3.47412 28.9818 2.7198 27.8451 2.2061 26.5778C1.70991 25.3546 1.45834 24.0625 1.45834 22.7372C1.45834 21.412 1.70991 20.1195 2.2061 18.8964C2.7198 17.6291 3.47449 16.4927 4.44829 15.5185L4.45084 15.5159L17.9021 2.12917C18.5956 1.43609 19.405 0.898698 20.3077 0.532656C21.1787 0.179375 22.0985 0 23.042 0C23.9852 0 24.9051 0.179375 25.7764 0.532656C26.6791 0.898698 27.4881 1.43609 28.1819 2.12917C28.8754 2.8226 29.4124 3.63198 29.7788 4.53469C30.1321 5.40604 30.3111 6.32589 30.3111 7.26943C30.3111 8.21297 30.1321 9.13281 29.7788 10.0042C29.4124 10.9069 28.8754 11.7159 28.1819 12.4097L14.7602 25.8307C14.3427 26.2482 13.856 26.5712 13.312 26.7921C12.7878 27.0047 12.234 27.1126 11.6663 27.1126C11.0987 27.1126 10.5452 27.0047 10.0206 26.7921C9.47699 26.5716 8.98991 26.2482 8.57246 25.8307C8.15501 25.4136 7.83199 24.9266 7.61142 24.383C7.39959 23.8583 7.29168 23.3049 7.29168 22.7372C7.29168 22.1696 7.39959 21.6158 7.61215 21.0915C7.83235 20.5479 8.15574 20.0605 8.57319 19.643L20.9475 7.26906C21.517 6.69958 22.4405 6.69958 23.01 7.26906C23.5794 7.83854 23.5794 8.76203 23.01 9.33151L10.6356 21.7055C10.36 21.9815 10.2083 22.3479 10.2083 22.7372C10.2083 23.1266 10.36 23.4927 10.6356 23.7683C10.9109 24.0439 11.2773 24.1956 11.6667 24.1956C12.0561 24.1956 12.4225 24.0439 12.6977 23.7683L26.1195 10.3469C26.9416 9.52474 27.3944 8.43172 27.3944 7.26943C27.3944 6.10714 26.9416 5.01375 26.1195 4.19198C25.2977 3.36948 24.2047 2.91667 23.042 2.91667C21.8794 2.91667 20.786 3.36948 19.9646 4.19161L19.962 4.19417L6.50965 17.582C5.81366 18.2784 5.2748 19.0896 4.9084 19.9927C4.55475 20.8658 4.37501 21.7897 4.37501 22.7372C4.37501 23.6848 4.55475 24.6083 4.90876 25.4815C5.27553 26.3853 5.81402 27.1965 6.5111 27.8928C7.20746 28.5892 8.01902 29.1284 8.92209 29.4948C9.79564 29.8492 10.7191 30.0289 11.6667 30.0289C12.6142 30.0289 13.5381 29.8492 14.4113 29.4948C15.3151 29.1284 16.1259 28.5895 16.8226 27.8928L30.2283 14.4871C30.7978 13.9176 31.7213 13.9176 32.2904 14.4871C32.8599 15.0566 32.8599 15.9801 32.2904 16.5495L18.8847 29.9553C17.9109 30.9291 16.7745 31.6834 15.5068 32.1974C14.2844 32.694 12.9919 32.9456 11.6667 32.9456Z" fill="white"/>
</svg>
