<svg width="39" height="39" viewBox="0 0 39 39" fill="none" xmlns="http://www.w3.org/2000/svg">
<path d="M31.6879 11.9806C33.1872 9.45273 31.2941 6.28811 28.4262 6.32843C28.4637 3.44116 25.2913 1.55461 22.7681 3.06643C22.1075 1.90094 20.8685 1.15707 19.4974 1.15707C18.1311 1.15707 16.8945 1.89945 16.2334 3.06226C13.7046 1.55584 10.5378 3.44516 10.5752 6.32843C7.69886 6.29273 5.81919 9.44307 7.31827 11.9791C6.15307 12.6352 5.40921 13.8721 5.40921 15.2456C5.40921 16.6203 6.1507 17.8583 7.31351 18.5162C5.84981 20.9756 7.58862 24.1678 10.5764 24.1678C10.5687 25.0044 10.8567 25.8284 11.3794 26.5021C11.3762 26.5014 11.3727 26.5008 11.3695 26.5001C9.35244 29.4922 7.17091 32.4171 5.95826 35.6956C5.93386 35.7444 5.98262 35.787 6.02528 35.7565C7.40858 34.9582 8.91371 34.2026 10.4859 33.4714C10.5164 33.4592 10.5529 33.4714 10.5529 33.5079C10.8272 34.9095 11.1562 36.3354 11.6132 37.8101C11.6254 37.8528 11.6925 37.8528 11.7108 37.8162C12.941 34.5017 15.1536 31.5439 17.186 28.5304C18.1522 29.2852 19.4289 29.5879 20.7336 29.1291C22.653 31.9366 24.6546 34.7196 25.8056 37.8162C25.8178 37.8528 25.8848 37.8528 25.897 37.8101C26.354 36.3354 26.6892 34.9095 26.9573 33.5079C26.9573 33.4714 27 33.4592 27.0243 33.4714C28.6026 34.2026 30.1078 34.9582 31.4911 35.7565C31.5276 35.787 31.5764 35.7444 31.5581 35.6956C30.4467 32.7339 28.5613 30.053 26.7137 27.3529C27.8029 26.6423 28.4409 25.4407 28.4256 24.1675C31.3026 24.2251 33.1903 21.0224 31.6909 18.5147C34.2239 17.0795 34.2253 13.4124 31.6879 11.9806ZM30.6477 17.6525L30.3371 17.7212C30.3012 17.8999 29.9808 18.3025 30.3472 18.7406C31.9661 20.5337 30.3371 23.3993 27.9507 22.8952C27.3708 22.7513 27.1399 23.347 27.0194 23.4549L27.1646 23.7474C27.6067 26.145 24.7616 27.6957 22.9758 26.0802C22.5552 25.7281 22.1051 26.074 21.9635 26.1046L21.9004 26.406C21.095 28.7151 17.8636 28.6552 17.0956 26.4039L17.0248 26.0932L16.6928 25.9695C16.4654 25.885 16.2125 25.9311 16.0108 26.1004C15.0272 26.9831 13.4044 27.0075 12.4152 25.8641C11.9011 25.269 11.6892 24.4657 11.8446 23.7093C11.9053 23.4986 11.8576 23.2701 11.7107 23.1014L11.3869 22.7812L11.0352 22.8985C8.65502 23.3792 7.03181 20.539 8.67092 18.7221C8.82802 18.5335 8.87325 18.277 8.78935 18.0526L8.62926 17.6923L8.32993 17.6441C7.30994 17.2874 6.62797 16.3295 6.62797 15.2456C6.62797 14.1506 7.32899 13.1836 8.37754 12.8381C8.89705 12.6624 8.82599 12.116 8.86849 11.9952L8.65604 11.7589C7.01943 9.93329 8.70817 7.09654 11.0501 7.60251C11.6302 7.74575 11.8648 7.14172 11.982 7.03539L11.8368 6.7432C11.4039 4.40542 14.2039 2.78232 16.0108 4.40449L16.0792 4.45716C16.2738 4.58778 16.5154 4.61129 16.7279 4.51875L17.0611 4.34914L17.1058 4.07303C17.4694 3.05572 18.4245 2.37582 19.4974 2.37582C20.5865 2.37582 21.5523 3.07208 21.9064 4.10992L21.9748 4.39795C22.1341 4.43922 22.5068 4.74476 22.9228 4.46401L22.9924 4.40985C23.8095 3.67164 24.9937 3.54607 25.9411 4.09742C26.8712 4.63896 27.3681 5.73958 27.1575 6.78308C27.0085 7.29855 27.5013 7.55816 27.6163 7.71797L27.9692 7.59866C30.3321 7.10793 31.951 9.96711 30.3686 11.7348C29.9808 12.1226 30.2868 12.5888 30.3043 12.7325L30.6292 12.8396C32.9427 13.602 32.952 16.8731 30.6477 17.6525Z" fill="white"/>
<path d="M19.4986 6.67715C14.7637 6.67715 10.9247 10.5162 10.9247 15.2511C10.9247 19.9859 14.7637 23.825 19.4986 23.825C24.2334 23.825 28.0786 19.9859 28.0786 15.2511C28.0786 10.5162 24.2334 6.67715 19.4986 6.67715ZM25.0195 14.0018L22.32 16.6648C22.3078 16.677 22.3078 16.6892 22.3078 16.7014L22.972 20.4368C22.9781 20.4734 22.9477 20.4917 22.9172 20.4795L19.5473 18.7306C19.5351 18.7245 19.5229 18.7245 19.5108 18.7306L16.1592 20.5221C16.1348 20.5343 16.0982 20.51 16.1043 20.4795L16.7259 16.7318C16.7259 16.7196 16.7198 16.7074 16.7137 16.7014L13.9776 14.0689C13.9594 14.0445 13.9654 14.0079 14.002 14.0018L17.7558 13.4351C17.768 13.429 17.774 13.4229 17.7801 13.4107L19.4437 9.99825C19.4559 9.96775 19.4986 9.96775 19.5108 9.99825L21.2109 13.3924C21.217 13.4046 21.2292 13.4107 21.2414 13.4107L25.0012 13.9348C25.0317 13.9409 25.0439 13.9775 25.0195 14.0018Z" fill="white"/>
</svg>
