<svg width="99" height="99" viewBox="0 0 99 99" fill="none" xmlns="http://www.w3.org/2000/svg">
<path d="M49.5 0V0C49.8124 4.50273 56.2305 5.00784 57.2435 0.609426V0.609426V0.609426C56.8477 5.10559 63.1078 6.6085 64.7963 2.4227V2.4227V2.4227C63.7021 6.80159 69.65 9.26529 71.9725 5.39518V5.39518V5.39518C70.2067 9.54898 75.696 12.9128 78.5954 9.45366V9.45366V9.45366C76.2015 13.2801 81.097 17.4612 84.5018 14.4982V14.4982V14.4982C81.5388 17.903 85.7199 22.7985 89.5463 20.4046V20.4046V20.4046C86.0872 23.304 89.451 28.7933 93.6048 27.0275V27.0275V27.0275C89.7347 29.35 92.1984 35.2979 96.5773 34.2037V34.2037V34.2037C92.3915 35.8922 93.8944 42.1523 98.3906 41.7565V41.7565V41.7565C93.9922 42.7695 94.4973 49.1876 99 49.5V49.5V49.5C94.4973 49.8124 93.9922 56.2305 98.3906 57.2435V57.2435V57.2435C93.8944 56.8477 92.3915 63.1078 96.5773 64.7963V64.7963V64.7963C92.1984 63.7021 89.7347 69.65 93.6048 71.9725V71.9725V71.9725C89.451 70.2067 86.0872 75.696 89.5463 78.5954V78.5954V78.5954C85.7199 76.2015 81.5388 81.097 84.5018 84.5018V84.5018V84.5018C81.097 81.5388 76.2015 85.7199 78.5954 89.5463V89.5463V89.5463C75.696 86.0872 70.2067 89.451 71.9725 93.6048V93.6048V93.6048C69.65 89.7347 63.7021 92.1984 64.7963 96.5773V96.5773V96.5773C63.1078 92.3915 56.8477 93.8944 57.2435 98.3906V98.3906V98.3906C56.2305 93.9922 49.8124 94.4973 49.5 99V99V99C49.1876 94.4973 42.7695 93.9922 41.7565 98.3906V98.3906V98.3906C42.1523 93.8944 35.8922 92.3915 34.2037 96.5773V96.5773V96.5773C35.2979 92.1984 29.35 89.7347 27.0275 93.6048V93.6048V93.6048C28.7933 89.451 23.304 86.0872 20.4046 89.5463V89.5463V89.5463C22.7985 85.7199 17.903 81.5388 14.4982 84.5018V84.5018V84.5018C17.4612 81.097 13.2801 76.2015 9.45366 78.5954V78.5954V78.5954C12.9128 75.696 9.54898 70.2067 5.39518 71.9725V71.9725V71.9725C9.26529 69.65 6.80159 63.7021 2.4227 64.7963V64.7963V64.7963C6.6085 63.1078 5.10559 56.8477 0.609426 57.2435V57.2435V57.2435C5.00784 56.2305 4.50273 49.8124 0 49.5V49.5V49.5C4.50273 49.1876 5.00784 42.7695 0.609426 41.7565V41.7565V41.7565C5.10559 42.1523 6.6085 35.8922 2.4227 34.2037V34.2037V34.2037C6.8016 35.2979 9.26529 29.35 5.39518 27.0275V27.0275V27.0275C9.54898 28.7933 12.9128 23.304 9.45366 20.4046V20.4046V20.4046C13.2801 22.7985 17.4612 17.903 14.4982 14.4982V14.4982V14.4982C17.903 17.4612 22.7985 13.2801 20.4046 9.45366V9.45366V9.45366C23.304 12.9128 28.7933 9.54898 27.0275 5.39518V5.39518V5.39518C29.35 9.26529 35.2979 6.8016 34.2037 2.4227V2.4227V2.4227C35.8922 6.6085 42.1523 5.10559 41.7565 0.609426V0.609426V0.609426C42.7695 5.00784 49.1876 4.50273 49.5 0V0Z" fill="#F21631"/>
</svg>
