<svg width="612" height="128" viewBox="0 0 612 128" fill="none" xmlns="http://www.w3.org/2000/svg">
<path d="M549.239 123.537C546.513 123.537 543.787 124.106 541.061 124.674C539.699 124.674 538.336 125.811 537.654 124.674C537.654 124.106 538.336 124.106 539.017 123.537C541.743 122.968 545.831 121.831 549.239 123.537Z" fill="#FFC700"/>
<path d="M427.267 125.237C425.222 126.943 421.134 127.512 416.364 126.943C415.001 125.237 417.727 124.669 427.267 125.237Z" fill="#FFC700"/>
<path d="M455.206 126.944C453.162 128.081 451.118 126.944 449.073 126.944C447.71 126.944 445.666 126.944 444.303 126.944C444.985 125.239 449.073 124.67 452.48 124.67C453.162 125.239 457.251 125.807 455.206 126.944Z" fill="#FFC700"/>
<path d="M323.687 125.808C323.687 126.376 323.005 126.945 321.642 126.376C320.961 126.376 320.961 125.808 320.279 125.808C320.279 125.239 321.642 125.239 321.642 125.239C322.324 125.239 323.687 125.239 323.687 125.808Z" fill="#FFC700"/>
<path d="M8.17481 37.6787C6.81194 36.5415 10.9005 35.9729 14.9891 34.8358C14.9891 35.9729 15.6706 37.1101 14.9891 37.6787C12.9448 38.8159 8.17481 37.6787 8.17481 37.6787Z" fill="#FFC700"/>
<path d="M7.50003 1.85948C8.18147 1.85948 8.18145 1.29089 9.54432 1.29089C10.9072 1.29089 10.9072 1.85948 10.9072 1.85948C10.9072 2.42807 11.5886 2.99665 9.54432 2.99665C8.86288 2.42807 8.18147 1.85948 7.50003 1.85948Z" fill="#FFC700"/>
<path d="M12.9488 104.203C12.9488 103.634 13.6303 103.634 13.6303 103.065C14.3117 102.497 14.9931 101.928 15.6746 101.36C15.6746 100.222 15.6746 99.0852 14.9931 97.9481C14.3117 97.9481 13.6303 97.9481 12.9488 97.9481C14.3117 96.8109 10.2231 94.5365 15.6746 93.3994C15.6746 95.1051 15.6746 96.2423 15.6746 97.9481C19.0818 96.2423 17.0374 94.5365 17.7189 92.2622C18.4003 90.5564 16.356 89.4193 19.0818 87.7135C23.1704 86.5763 21.8075 84.8706 20.4446 83.1648C20.4446 82.0276 19.7632 80.3219 21.8075 79.1847C19.0818 75.7732 25.8962 72.3617 22.489 69.5188C21.1261 70.0873 23.1704 71.2245 20.4446 71.7931C20.4446 71.2245 20.4446 70.6559 20.4446 70.6559C20.4446 70.0873 20.4446 69.5188 20.4446 69.5188C21.8075 68.9502 22.4889 69.5188 23.1704 69.5188C26.5776 65.5386 25.2147 61.5585 29.9848 58.7156C32.7106 58.147 36.1178 58.147 38.8435 58.7156C36.1178 58.7156 32.7106 59.2842 29.9848 58.7156C33.392 56.4413 29.3034 54.1669 29.9848 51.8926C25.8962 46.2067 28.6219 40.5209 28.6219 34.835C29.3033 33.1292 29.9848 31.4235 30.6663 29.7177C30.6663 28.5805 30.6663 26.8748 27.9405 26.3062C21.8075 24.0319 20.4447 21.7575 27.259 19.4832C28.6219 20.0518 27.259 22.3261 32.0291 20.0518C34.7549 19.4832 37.4806 18.9146 40.8878 18.9146C40.2064 18.346 38.1621 18.346 36.7992 18.346C34.7549 18.346 32.7105 19.4832 31.3476 18.346C30.6662 17.2088 32.7106 16.0716 36.7992 16.0716C37.4807 16.0716 38.1621 15.5031 38.8435 15.5031C38.8435 14.3659 29.9848 16.6402 32.0291 13.7973C33.392 11.523 36.1178 10.9544 41.5693 11.523C42.9322 11.523 44.295 10.9544 45.6579 10.9544H44.9765V10.3858C55.1981 9.8172 64.7382 6.97427 75.6413 9.24861C83.8185 9.8172 91.9958 9.8172 100.173 9.24861C106.987 8.11144 114.483 7.54286 122.661 8.11144C124.023 6.97427 126.068 6.40568 128.794 7.54286C129.475 8.11144 131.519 8.11144 133.564 8.11144C142.422 4.69993 153.325 6.97427 163.547 6.97427C168.317 6.97427 173.769 6.97427 178.539 6.97427C180.583 5.26851 184.672 4.69993 188.76 4.69993C202.389 3.56275 216.018 4.13134 229.647 4.13134C231.691 4.13134 234.417 4.13134 235.78 3.56275C235.78 2.99417 235.779 2.99417 235.098 2.42558C234.417 1.85699 232.372 0.719822 235.098 0.151236C239.187 -0.41735 239.868 0.719822 240.55 1.85699C240.55 2.42558 240.55 2.99417 240.55 2.99417C243.275 1.85699 246.683 0.151236 249.408 2.99417C251.453 3.56275 254.86 4.13134 257.586 4.13134C260.993 3.56275 258.948 4.13134 259.63 4.69993C262.356 4.69993 265.081 4.69993 268.489 4.69993C271.896 4.69993 275.984 4.69993 279.392 4.69993C281.436 4.13134 283.48 3.56275 286.206 3.56275C286.206 3.56275 285.525 4.13134 285.525 4.69993C289.613 4.69993 294.383 4.13134 298.472 5.26851C299.153 5.26851 299.835 5.8371 300.516 5.8371C299.835 5.8371 299.153 5.26851 298.472 5.26851C302.561 5.8371 307.331 4.13134 310.738 5.26851C316.871 4.13134 323.685 4.69993 330.5 4.69993C336.633 2.42558 343.447 3.56275 350.261 4.69993C350.943 4.69993 351.624 4.69993 352.306 4.69993C352.306 4.13134 352.306 3.56275 352.306 3.56275C361.846 4.69993 371.386 5.26851 381.608 4.13134C384.333 3.56275 389.103 4.13134 387.059 5.8371H386.378H387.059C391.148 5.8371 393.873 5.26851 397.281 4.69993C399.325 5.26851 397.281 6.40568 400.006 6.97427C402.051 6.97427 404.095 6.97427 406.139 6.97427C406.139 5.8371 402.732 4.69993 406.821 4.69993C412.954 4.69993 410.909 6.40568 411.591 7.54286C413.635 7.54286 415.68 6.97427 417.724 6.97427C418.405 5.26851 420.45 4.69993 424.538 5.26851C432.716 5.26851 440.211 5.26851 448.389 5.26851C449.07 5.26851 449.752 5.26851 450.433 5.26851C451.114 5.26851 451.796 5.26851 452.477 5.26851C454.522 4.69993 457.247 4.13134 459.973 4.69993C462.017 4.69993 459.292 5.8371 459.292 6.40568C464.062 6.97427 469.513 6.40568 474.283 6.97427C474.965 6.97427 477.009 7.54286 478.372 7.54286C488.594 5.8371 498.134 6.40568 506.311 8.68003C509.718 9.24861 512.444 9.8172 516.533 9.8172C520.621 9.8172 527.436 8.68003 527.436 11.523C525.391 11.523 522.666 11.523 520.621 12.0915C523.347 11.523 524.71 10.9544 527.436 11.523C529.48 12.0915 531.524 12.0915 534.25 12.0915C534.25 12.6601 534.25 13.2287 534.25 14.3659C536.294 14.3659 538.339 13.7973 540.383 13.7973C539.02 14.3659 546.516 16.0716 536.976 16.6402C541.746 16.6402 545.153 17.2088 547.197 16.0716C551.286 14.3659 554.012 14.3659 558.782 16.0716C561.508 17.2088 566.278 17.7774 565.596 18.9146C564.233 20.6203 559.463 19.4832 556.056 20.0518C555.375 20.0518 554.693 20.6203 554.012 20.6203C557.419 21.1889 560.826 21.1889 564.915 21.1889C565.596 21.1889 565.596 21.1889 566.278 21.1889C578.544 17.2088 585.358 21.7575 596.261 22.8947C591.491 24.0319 586.721 22.8947 585.358 24.6004C588.084 24.6004 591.491 24.0319 594.898 25.169C592.172 26.3062 588.765 26.3062 585.358 26.3062C583.995 26.8748 582.632 26.8748 581.269 27.4434C582.632 27.4434 586.039 28.012 584.677 28.5805C583.314 29.1491 579.906 28.5805 577.862 28.5805C578.544 29.7177 590.128 28.5805 583.314 31.4235L583.995 31.9921C584.677 31.9921 585.358 31.9921 586.039 31.9921C592.172 31.4235 588.765 33.1292 589.447 34.2664H590.128V34.835C592.172 34.835 594.898 34.835 593.535 35.9722C590.809 38.2465 585.358 37.6779 579.906 37.6779C576.499 41.0894 586.039 39.3837 590.128 39.9523C595.58 39.9523 596.942 41.658 596.942 42.7952C596.942 43.3638 594.898 45.0695 590.128 44.501C588.765 44.501 587.402 44.501 586.039 44.501C583.314 45.6381 579.225 45.6381 576.499 45.6381L577.181 46.2067C586.721 45.6381 588.765 47.9125 593.535 49.6182C594.217 50.1868 597.624 50.7554 596.261 51.324C594.217 51.8926 592.172 51.8926 590.128 52.4612C588.084 52.4612 586.721 53.0297 584.677 53.5983C587.402 53.5983 589.447 54.1669 591.491 54.1669C592.172 54.7355 594.898 55.8727 590.128 55.8727C597.624 58.147 586.721 59.2842 583.995 59.8528C574.455 61.5585 573.092 61.5585 579.906 64.4015C584.677 66.1072 579.906 66.1072 576.499 66.6758C575.818 66.6758 575.136 66.6758 573.773 66.6758C574.455 67.2444 573.773 67.813 572.411 67.813C577.181 69.5188 581.951 67.813 587.402 67.813C590.809 68.9502 594.217 69.5188 596.942 70.0873C595.58 71.2245 591.491 71.7931 589.447 72.9303C588.084 74.0674 582.632 73.4989 581.269 74.636C582.632 74.636 584.677 74.636 586.039 74.636C588.084 74.636 590.128 74.636 592.172 74.636C595.58 74.636 594.898 71.2245 599.668 73.4989C603.757 75.7732 605.801 78.0475 611.934 79.7533C606.483 80.8905 602.394 78.0475 600.35 79.1847C598.305 80.8905 591.491 81.4591 595.58 83.7334C596.942 83.7334 596.942 83.7334 596.261 84.302C600.35 84.8706 602.394 86.5763 606.483 87.1449C609.89 87.7135 609.89 88.8507 607.845 89.4193C605.12 89.9879 603.757 89.4193 601.712 88.8507C599.668 87.7135 596.261 87.7135 593.535 88.2821C590.128 88.8507 593.535 89.9879 594.217 90.5564C593.535 92.2622 588.765 91.6936 585.358 91.6936C584.677 92.8308 586.721 93.3994 583.995 94.5365C583.995 93.3994 583.314 92.2622 583.314 91.6936C581.269 93.3994 581.269 95.1051 585.358 96.8109C588.084 97.9481 590.809 99.0852 585.358 100.791C579.225 103.065 585.358 105.34 583.995 107.614C583.995 107.614 586.721 107.614 587.402 107.614C590.128 107.614 592.172 107.614 595.58 108.183C594.898 109.32 592.854 109.888 589.447 109.888C588.084 109.888 584.677 109.888 584.677 111.026C584.677 112.163 588.084 111.594 589.447 111.594C592.854 111.594 596.942 111.026 600.35 112.163C596.942 112.163 594.217 112.731 591.491 112.731C590.809 112.731 590.128 112.731 589.447 112.731C583.995 112.731 581.269 113.868 580.588 115.006C580.588 116.143 577.862 116.711 574.455 116.711C567.641 117.28 562.87 119.554 554.693 119.554C550.605 120.691 546.516 120.691 541.746 120.691C539.702 120.691 537.657 121.26 535.613 121.26C534.931 121.26 534.25 121.829 533.569 121.829C528.117 121.829 526.754 123.534 522.666 124.103C521.303 124.103 524.71 125.24 520.621 125.24C518.577 125.24 516.533 124.672 517.895 124.103C521.984 122.397 514.488 123.534 512.444 123.534H511.762H511.081C492.001 123.534 472.239 123.534 453.159 124.103C411.591 124.103 370.023 124.103 329.137 124.103V123.534V124.103C293.02 124.103 256.904 124.103 220.788 124.103C216.018 125.24 210.566 124.103 205.115 124.672C194.893 124.672 183.99 124.672 173.769 124.672C171.043 125.24 167.636 124.672 164.228 124.672C163.547 124.672 163.547 124.672 162.865 124.672C139.697 125.24 116.528 125.809 94.0401 124.672C92.6772 124.672 91.3144 124.672 89.9515 124.672C87.9072 124.672 85.8628 124.672 83.8185 124.672C66.1011 125.24 50.428 123.534 34.7549 124.103C34.7549 123.534 34.0735 122.966 34.0735 122.397C32.7106 121.829 30.6662 121.26 28.6219 121.26C29.3033 120.692 29.3034 120.123 29.9848 119.554C29.3034 118.986 29.3033 118.417 28.6219 117.849C27.9405 116.143 27.259 114.437 26.5776 112.163C25.8962 112.163 25.8961 111.594 25.8961 111.594C23.8518 111.026 21.1261 111.026 19.0818 110.457C6.13443 109.32 4.09011 107.045 12.9488 104.203ZM530.843 19.4832C531.524 19.4832 531.524 19.4832 532.206 19.4832C531.524 19.4832 530.843 19.4832 530.843 19.4832ZM192.849 18.9146C192.849 18.9146 193.53 18.9146 192.849 18.9146C193.53 18.9146 194.212 18.9146 194.893 18.9146C194.893 18.9146 194.212 18.9146 192.849 18.9146ZM196.937 21.1889C197.619 21.1889 197.619 21.1889 196.937 21.1889C196.937 21.1889 197.619 20.6203 196.937 21.1889C196.937 21.1889 196.937 20.6203 196.937 21.1889ZM87.9072 46.7753C87.9072 46.7753 88.5886 46.7753 87.9072 46.7753V46.7753ZM87.9072 55.3041C88.5886 55.3041 89.9515 55.3041 90.6329 55.3041C91.9958 54.7355 93.3587 54.7355 94.0401 54.7355C92.6772 54.7355 90.6329 55.3041 87.9072 55.3041C88.5886 55.3041 88.5886 55.3041 87.9072 55.3041ZM297.109 53.5983C297.109 53.0297 297.79 53.0297 297.79 53.0297H297.109C297.791 53.0297 297.109 53.0297 297.109 53.5983ZM375.475 66.1072C373.43 66.6758 372.067 66.6758 370.705 67.2444C372.067 66.6758 372.749 65.5386 375.475 66.1072ZM213.292 57.5784C213.973 57.5784 213.973 57.5784 213.973 57.5784C214.655 58.147 214.655 57.0099 215.336 57.0099C213.292 57.5784 211.929 57.5784 210.566 57.5784C211.248 57.5784 211.929 57.5784 213.292 57.5784C213.292 57.5784 212.611 57.5784 213.292 57.5784ZM189.442 58.7156C188.76 58.7156 188.079 58.7156 188.079 58.7156C188.76 58.7156 189.442 58.7156 189.442 58.7156ZM205.115 71.2245C205.115 71.2245 205.796 71.2245 205.115 71.2245C205.796 71.2245 205.115 71.2245 205.115 71.2245ZM186.716 77.479C186.716 77.479 186.716 78.0475 186.716 77.479C186.034 78.0475 186.716 78.0475 186.716 77.479C186.716 78.0475 186.716 78.0475 186.716 77.479ZM380.926 46.2067C380.926 46.2067 380.245 46.2067 380.926 46.2067V46.2067ZM391.148 51.324C393.873 51.8926 396.599 52.4612 402.051 51.8926C400.688 51.8926 398.644 51.324 397.281 51.324C395.236 51.324 393.192 51.8926 391.148 51.324ZM290.295 46.7753C292.339 47.3439 295.065 47.3439 297.79 46.7753C295.746 46.7753 293.02 47.3439 290.295 46.7753ZM319.597 53.0297C320.278 53.0297 320.278 53.0297 320.278 53.0297H319.597ZM302.561 34.835C302.561 34.2664 301.879 34.2664 302.561 34.835C301.879 34.2664 302.561 34.2664 302.561 34.835ZM372.749 60.4214C374.793 60.99 378.882 60.4214 382.97 59.2842C377.519 59.8528 371.386 59.8528 365.253 59.8528C367.979 59.8528 370.023 59.8528 372.749 60.4214ZM354.35 45.0695C354.35 44.501 353.669 44.501 354.35 45.0695C354.35 44.501 354.35 44.501 354.35 45.0695C354.35 44.501 354.35 44.501 354.35 45.0695ZM261.674 45.6381C260.993 45.6381 260.311 45.6381 259.63 45.6381C260.311 45.0695 260.993 45.0695 261.674 45.6381ZM457.929 57.5784C458.61 57.5784 459.292 57.5784 459.292 57.5784C459.292 57.5784 459.292 57.0099 458.61 57.0099C458.61 57.5784 458.61 57.5784 457.929 57.5784ZM468.832 38.8151C469.513 38.8151 469.513 38.2465 470.195 38.2465C469.513 38.8151 469.513 38.8151 468.832 38.8151ZM468.832 34.835C468.15 34.835 468.15 34.835 467.469 34.835C468.15 35.4036 468.832 34.835 468.832 34.835ZM350.261 69.5188C350.261 70.0873 350.261 70.0873 350.261 70.6559C350.943 70.6559 351.624 70.6559 352.306 70.6559C351.624 70.0873 350.943 69.5188 350.261 69.5188ZM353.669 60.4214C354.35 60.4214 353.669 60.4214 353.669 60.4214C352.987 60.4214 352.987 60.4214 352.306 60.4214C352.987 60.99 353.669 60.4214 353.669 60.4214ZM449.07 46.2067C451.114 46.2067 453.159 45.6381 455.884 45.6381C453.84 46.2067 451.796 46.2067 449.07 46.2067ZM359.12 75.2046C360.483 75.2046 361.164 75.2046 362.527 75.7732C363.209 75.7732 364.572 75.7732 365.253 75.7732C363.209 75.2046 361.164 75.2046 359.12 75.2046ZM122.661 45.0695C121.979 45.0695 121.298 45.0695 120.616 45.0695C121.298 45.0695 121.979 45.0695 122.661 45.0695ZM109.713 42.2266C109.713 42.2266 109.032 42.2266 109.032 41.658C109.032 41.658 109.032 41.658 109.032 42.2266H109.713ZM130.156 39.9523C126.068 39.9523 121.979 39.3837 119.253 38.2465C121.979 39.3837 126.749 38.8151 130.156 39.9523ZM89.27 67.2444C89.9515 67.2444 89.9515 67.2444 89.27 67.2444C89.27 66.6758 89.27 67.2444 87.9072 67.2444C88.5886 67.813 89.27 67.2444 89.27 67.2444ZM176.494 99.6538C177.176 99.6538 177.857 100.222 177.857 99.6538C177.176 99.6538 177.176 99.6538 176.494 99.6538ZM119.935 94.5365C120.616 94.5365 120.616 94.5365 121.298 94.5365C121.298 94.5365 121.979 93.968 121.298 94.5365C120.616 94.5365 120.616 94.5365 119.935 94.5365ZM96.7659 46.2067C95.403 46.7753 93.3587 46.7753 91.3144 46.7753C94.0401 46.7753 96.0844 46.7753 96.7659 46.2067ZM502.904 28.5805H503.585C503.585 28.5805 503.585 28.5805 502.904 28.5805ZM479.735 87.7135C479.735 87.7135 479.053 87.1449 477.691 87.1449C477.691 87.7135 476.328 87.7135 475.646 87.7135C477.009 87.7135 478.372 87.7135 479.735 87.7135ZM363.89 91.6936C361.846 91.6936 360.483 91.6936 358.439 91.6936C360.483 91.6936 362.527 91.125 363.89 91.6936ZM304.605 74.636C304.605 74.636 304.605 75.2046 304.605 74.636C304.605 75.2046 304.605 75.2046 304.605 74.636C304.605 75.2046 304.605 75.2046 304.605 74.636ZM88.5886 38.8151C88.5886 38.8151 87.9072 38.8151 88.5886 38.8151C85.8628 38.8151 83.8185 39.3837 81.0928 38.8151C79.0484 38.2465 74.9598 38.8151 72.234 38.8151C77.0041 38.2465 83.1371 38.2465 88.5886 38.8151ZM530.161 78.6161C528.117 78.6161 526.073 78.6161 524.028 78.6161C526.073 78.6161 528.117 78.0475 530.161 78.6161ZM499.497 98.5166H500.178C498.815 98.5166 498.815 97.9481 497.452 97.9481C498.815 97.9481 498.815 98.5166 499.497 98.5166ZM218.744 100.222H219.425C219.425 100.222 219.425 100.222 218.744 100.222C219.425 100.222 219.425 100.222 218.744 100.222ZM133.564 104.203C133.564 103.634 134.926 103.634 135.608 103.634C131.519 104.203 126.749 105.34 121.298 105.34C121.298 105.34 121.298 105.34 121.979 105.34C126.068 104.771 129.475 103.634 133.564 104.203ZM68.8269 57.5784C71.5526 57.0099 74.9598 57.5784 76.3227 56.4413L68.8269 57.5784C68.8269 57.5784 69.5083 57.5784 68.8269 57.5784ZM132.882 25.7376C132.201 25.169 132.201 25.7376 131.519 25.7376C132.201 25.7376 132.882 25.7376 132.882 25.7376ZM401.369 10.9544H400.688C400.688 10.9544 400.688 10.9544 401.369 10.9544ZM542.427 41.0894C543.109 39.9523 542.427 39.3837 541.064 38.8151C541.746 39.3837 543.109 40.5209 542.427 41.0894ZM111.076 115.006C110.395 115.006 110.395 115.006 109.713 115.006C109.713 115.006 109.713 115.006 109.032 115.006C110.395 115.006 110.395 115.006 111.076 115.006ZM59.2867 86.5763C59.2867 86.5763 58.6053 86.5763 59.2867 86.5763C59.2867 87.1449 59.2867 86.5763 59.2867 86.5763ZM248.727 13.2287C248.045 13.2287 247.364 13.2287 246.001 13.2287C247.364 13.2287 248.045 13.2287 248.727 13.2287ZM448.389 9.8172C448.389 9.8172 449.07 9.24861 449.751 9.24861C449.07 9.24861 448.389 9.8172 448.389 9.8172ZM461.336 11.523C459.973 11.523 458.61 11.523 457.929 12.0915C457.929 11.523 459.292 10.9544 461.336 11.523ZM544.472 91.125C543.79 91.125 543.109 91.125 542.427 91.125C543.109 91.6936 543.79 91.125 544.472 91.125ZM107.669 116.711C104.943 116.711 104.943 116.711 105.625 117.28C106.306 117.28 106.987 117.28 107.669 116.711ZM96.7659 117.849C96.7659 118.417 96.0844 118.417 96.7659 117.849C96.7659 118.417 96.7659 117.849 96.7659 117.849ZM132.882 16.0716C131.519 16.0716 130.156 15.5031 129.475 15.5031C124.705 16.0716 119.935 16.0716 115.165 16.0716C121.298 16.0716 126.749 15.5031 132.882 16.0716ZM462.017 10.3858C463.38 10.3858 464.743 10.9544 466.106 10.9544C464.743 10.9544 462.699 10.9544 462.017 10.3858ZM560.145 115.006C559.463 115.006 559.463 115.574 558.1 115.574C558.782 115.574 559.463 115.574 560.145 115.006C560.145 115.006 560.145 115.574 560.145 115.006ZM517.214 120.123C516.533 120.123 515.851 120.123 514.488 120.691C516.533 120.691 517.895 121.26 517.214 120.691C517.895 120.123 517.214 120.123 517.214 120.123ZM483.142 111.026C483.142 110.457 484.505 110.457 484.505 110.457C482.461 111.026 481.098 111.026 479.735 111.026C481.098 111.026 481.779 111.026 483.142 111.026ZM33.392 26.8748C33.392 26.8748 32.7106 26.8748 33.392 26.8748C32.7106 26.8748 32.7106 26.8748 33.392 26.8748C33.392 26.8748 32.7106 26.8748 33.392 26.8748ZM154.007 15.5031H154.688C154.007 15.5031 153.325 15.5031 151.962 15.5031C153.325 15.5031 154.007 15.5031 154.007 15.5031ZM524.028 14.3659C523.347 14.3659 521.984 14.3659 521.303 14.3659C521.984 14.3659 521.984 14.3659 522.666 14.3659C523.347 14.3659 523.347 14.3659 524.028 14.3659ZM560.145 38.2465C560.826 38.2465 561.508 38.2465 562.189 38.2465C561.508 37.6779 560.826 38.2465 560.145 38.2465ZM340.04 113.3C338.677 112.731 335.27 112.163 333.225 113.3C335.951 113.3 338.677 113.3 340.721 113.3H340.04ZM539.702 17.7774C540.383 17.7774 540.383 17.7774 539.702 17.7774C540.383 17.7774 540.383 17.7774 539.702 17.7774C540.383 17.7774 540.383 17.7774 539.702 17.7774ZM571.048 70.0873C572.411 70.0873 573.773 70.0873 574.455 70.6559C573.092 70.0873 572.411 70.0873 571.048 70.0873ZM526.754 121.829C526.073 121.829 526.073 121.829 525.391 121.829C525.391 121.829 524.71 121.829 524.028 121.829C524.71 122.397 526.073 122.397 526.754 121.829ZM213.973 122.966C213.292 122.966 213.292 122.966 212.611 122.966H213.292C213.292 123.534 213.292 123.534 213.973 122.966ZM28.6219 112.731C28.6219 112.163 28.6219 112.163 28.6219 112.731C28.6219 112.163 28.6219 112.163 28.6219 112.731C28.6219 112.731 27.9405 112.163 28.6219 112.731Z" fill="#FFC700"/>
<path d="M604.438 121.258C606.483 120.689 608.527 120.689 611.253 121.258C611.934 121.258 611.934 121.826 611.934 121.826C605.801 121.258 607.845 124.101 602.394 124.101C603.075 122.964 601.712 121.826 604.438 121.258Z" fill="#FFC700"/>
<path d="M1.36376 75.7747C3.40809 74.6375 6.13388 75.2061 8.1782 75.2061C17.7184 75.7747 6.8153 76.9119 10.2225 78.049C18.3998 79.7548 4.77096 82.0291 12.2668 83.7349C11.5854 83.7349 10.9039 83.7349 10.2225 83.7349C8.17818 83.7349 6.81529 83.1663 6.81529 82.5977C6.13385 82.0291 8.17818 79.7548 1.36376 79.7548C4.77097 78.049 -1.362 76.9119 1.36376 75.7747Z" fill="#FFC700"/>
<path d="M11.5852 86.0095C13.6295 86.0095 14.9924 86.5781 14.9924 87.1467C14.9924 87.7153 14.311 88.8524 12.2667 88.8524C10.2224 88.8524 8.85951 88.2839 8.17807 87.7153C6.81519 86.5781 9.5409 86.5781 11.5852 86.0095Z" fill="#FFC700"/>
<path d="M0.681459 87.1481C2.04433 87.1481 2.72578 87.7167 4.08866 87.7167C4.77009 87.7167 4.77008 88.2852 3.4072 88.2852C2.04433 88.2852 1.36295 87.7167 7.15419e-05 87.7167C7.15419e-05 87.7167 2.19133e-05 87.7167 0.681459 87.1481Z" fill="#FFC700"/>
<path d="M577.86 5.26699C577.86 4.69841 578.541 4.12982 579.904 4.69841C581.267 4.69841 582.63 5.83558 583.993 5.83558C583.311 5.83558 582.63 6.40417 581.949 6.40417C579.223 6.40417 577.86 5.83558 577.86 5.26699Z" fill="#FFC700"/>
<path d="M547.883 13.7954C545.157 13.7954 543.112 13.7954 540.387 13.7954C543.112 11.5211 545.157 13.2268 547.883 13.7954Z" fill="#FFC700"/>
<path d="M526.071 8.68053C525.39 7.54336 527.434 6.97478 530.16 6.40619C530.841 6.97478 532.204 7.54336 534.249 7.54336C534.93 8.11195 538.337 9.24912 534.93 9.81771C532.204 9.81771 530.16 8.11195 526.071 8.68053Z" fill="#FFC700"/>
</svg>
